<svg height="496pt" viewBox="0 0 496 496" width="496pt" xmlns="http://www.w3.org/2000/svg" xmlns:xlink="http://www.w3.org/1999/xlink"><linearGradient id="a" gradientUnits="userSpaceOnUse" x1="248" x2="248" y1="496" y2="0"><stop offset="0" stop-color="#9f2fff"/><stop offset="1" stop-color="#0bb1d3"/></linearGradient><path d="m264 208h16v16h-16zm32 40h16v-16h-16zm32 24h16v-16h-16zm32 8v16h16v-16zm-232 8c0 17.648438-14.351562 32-32 32s-32-14.351562-32-32 14.351562-32 32-32 32 14.351562 32 32zm-16 0c0-8.824219-7.175781-16-16-16s-16 7.175781-16 16 7.175781 16 16 16 16-7.175781 16-16zm104 64c0 17.648438-14.351562 32-32 32s-32-14.351562-32-32 14.351562-32 32-32 32 14.351562 32 32zm-16 0c0-8.824219-7.175781-16-16-16s-16 7.175781-16 16 7.175781 16 16 16 16-7.175781 16-16zm254.617188 128c-7.617188 0-11.050782-2.65625-15.808594-6.328125-5.570313-4.3125-12.503906-9.671875-25.585938-9.671875-13.078125 0-20.007812 5.359375-25.574218 9.671875-4.746094 3.671875-8.167969 6.328125-15.777344 6.328125-7.589844 0-11.023438-2.65625-15.765625-6.328125-5.570313-4.3125-12.488281-9.671875-25.5625-9.671875-13.070313 0-20 5.359375-25.566407 9.671875-4.746093 3.671875-8.167968 6.328125-15.777343 6.328125-7.589844 0-11.023438-2.65625-15.765625-6.328125-5.570313-4.3125-12.488282-9.671875-25.5625-9.671875-13.070313 0-20 5.359375-25.566406 9.671875-4.746094 3.671875-8.167969 6.328125-15.769532 6.328125-7.597656 0-11.023437-2.65625-15.765625-6.328125-5.570312-4.3125-12.488281-9.671875-25.5625-9.671875-13.070312 0-20 5.359375-25.558593 9.671875-4.746094 3.671875-8.160157 6.328125-15.761719 6.328125-7.582031 0-11-2.65625-15.742188-6.320312-5.558593-4.3125-12.480469-9.679688-25.542969-9.679688-13.074218 0-20 5.359375-25.5625 9.671875-4.742187 3.671875-8.167968 6.328125-15.757812 6.328125-7.585938 0-11.007812-2.65625-15.746094-6.328125-5.558594-4.304687-12.480468-9.671875-25.535156-9.671875v16c7.585938 0 11.007812 2.65625 15.742188 6.328125 5.5625 4.304687 12.480468 9.671875 25.539062 9.671875 13.0625 0 19.992188-5.359375 25.550781-9.671875 4.742188-3.671875 8.175781-6.328125 15.769531-6.328125 7.582032 0 11.007813 2.65625 15.75 6.328125 5.558594 4.3125 12.480469 9.671875 25.535157 9.671875 13.066406 0 19.992187-5.359375 25.554687-9.671875 4.742188-3.671875 8.175782-6.328125 15.765625-6.328125 7.59375 0 11.023438 2.65625 15.769531 6.328125 5.566407 4.3125 12.496094 9.671875 25.558594 9.671875 13.066406 0 19.992188-5.359375 25.5625-9.671875 4.742188-3.671875 8.175782-6.328125 15.773438-6.328125 7.59375 0 11.023437 2.65625 15.769531 6.328125 5.566406 4.3125 12.496094 9.671875 25.558594 9.671875 13.066406 0 20-5.359375 25.570312-9.671875 4.742188-3.671875 8.175781-6.328125 15.773438-6.328125 7.59375 0 11.023437 2.65625 15.769531 6.328125 5.566406 4.3125 12.496094 9.671875 25.558594 9.671875 13.066406 0 20-5.359375 25.570312-9.671875 4.742188-3.671875 8.175782-6.328125 15.78125-6.328125 7.617188 0 11.050782 2.65625 15.808594 6.328125 5.570312 4.3125 12.503906 9.671875 25.585938 9.671875 13.078124 0 20.007812-5.359375 25.574218-9.671875 4.761719-3.671875 8.191406-6.328125 15.808594-6.328125v-16c-13.078125 0-20.015625 5.359375-25.585938 9.671875-4.757812 3.671875-8.191406 6.328125-15.796874 6.328125zm15.796874-46.328125c5.570313-4.3125 12.507813-9.671875 25.585938-9.671875v16c-7.617188 0-11.046875 2.65625-15.808594 6.328125-5.566406 4.3125-12.496094 9.671875-25.574218 9.671875-13.082032 0-20.015626-5.359375-25.585938-9.671875-4.757812-3.671875-8.191406-6.328125-15.808594-6.328125-7.605468 0-11.039062 2.65625-15.78125 6.328125-5.570312 4.3125-12.496094 9.671875-25.570312 9.671875-13.070313 0-19.992188-5.359375-25.558594-9.671875-4.746094-3.671875-8.167969-6.328125-15.769531-6.328125-7.597657 0-11.03125 2.65625-15.773438 6.328125-5.570312 4.3125-12.496093 9.671875-25.570312 9.671875-13.070313 0-19.992188-5.359375-25.558594-9.671875-4.746094-3.671875-8.167969-6.328125-15.769531-6.328125-7.597656 0-11.03125 2.65625-15.773438 6.328125-5.570312 4.3125-12.496094 9.671875-25.5625 9.671875-13.070312 0-19.992187-5.359375-25.558594-9.671875-4.746093-3.671875-8.167968-6.328125-15.769531-6.328125-7.597656 0-11.023437 2.65625-15.765625 6.328125-5.5625 4.3125-12.488281 9.671875-25.554687 9.671875-13.054688 0-19.976563-5.359375-25.535157-9.671875-4.742187-3.671875-8.167968-6.328125-15.75-6.328125-7.59375 0-11.027343 2.65625-15.769531 6.328125-5.558593 4.3125-12.488281 9.671875-25.550781 9.671875-13.058594 0-19.976562-5.367188-25.539062-9.671875-4.734376-3.671875-8.15625-6.328125-15.742188-6.328125v-16c13.054688 0 19.976562 5.367188 25.535156 9.671875 4.738282 3.671875 8.160156 6.328125 15.746094 6.328125 7.589844 0 11.015625-2.65625 15.757812-6.328125 5.5625-4.3125 12.488282-9.671875 25.5625-9.671875 13.0625 0 19.984376 5.367188 25.542969 9.679688 4.742188 3.664062 8.160157 6.320312 15.742188 6.320312 7.59375 0 11.015625-2.65625 15.761719-6.328125 4.273437-3.3125 9.375-7.214844 17.40625-8.863281l-125.054688-92.785156v-202.144532c0-14.269531 11.609375-25.878906 25.878906-25.878906 5.714844 0 11.34375 1.929688 15.855469 5.433594l85.578125 66.367187 98.167969-32.722656 38.214843 29.121094 55.167969-63.039063 44.832031 33.632813-55.4375 63.367187 18.75 14.289063 31.585938-39.480469 44.8125 33.597656-31.855469 39.816406 28.449219 21.65625v111.226563l21.984375 17.046875c6.367187 4.933594 10.015625 12.390625 10.015625 20.449219v3.445312c0 3.753907-.832031 7.351563-2.304688 10.632813 3.234376-1.105469 5.769532-2.886719 8.71875-5.167969zm-98.671874-203.542969 19.082031 14.535156 21.777343-27.214843-19.1875-14.402344zm-63.285157-48.21875 19.039063 14.503906 44.800781-51.199218-19.167969-14.367188zm-133.929687 5.683594 241.472656 187.261719v-90.894531l-161.488281-123.03125zm96.625 244.34375c.289062.007812.558594.0625.847656.0625 8.824219 0 16-7.175781 16-16s-7.175781-16-16-16-16 7.175781-16 16c0 3.558594 1.207031 6.894531 3.34375 9.671875 4.929688 1.535156 8.65625 3.914063 11.808594 6.265625zm167.664062 1.734375c1.464844 1.128906 2.824219 2.113281 4.199219 3 3.023437-1.75 4.984375-4.902344 4.984375-8.464844v-3.445312c0-3.082031-1.390625-5.921875-3.832031-7.808594l-380.238281-294.882813c-1.722657-1.335937-3.867188-2.070312-6.050782-2.070312-5.445312 0-9.878906 4.433594-9.878906 9.878906v26.183594l292.878906 225.769531-9.765625 12.671875-283.113281-218.238281v147.703125l156.070312 115.792969c.816407.085937 1.53125.238281 2.464844.238281 7.59375 0 11.023438-2.65625 15.769532-6.328125 4.542968-3.519531 10.046874-7.6875 18.992187-9.121094-.761719-2.757812-1.296875-5.597656-1.296875-8.550781 0-17.648438 14.351562-32 32-32s32 14.351562 32 32c0 9.375-4.128906 17.742188-10.574219 23.601562 4.796875-.824218 7.804688-3.035156 11.550781-5.929687 5.566407-4.3125 12.503907-9.671875 25.566407-9.671875 13.066406 0 19.992187 5.359375 25.5625 9.671875 4.742187 3.671875 8.175781 6.328125 15.765625 6.328125 5.976562 0 9.386718-1.671875 12.871094-4.160156l-37.628907-29.007813 9.765625-12.671875 42.152344 32.488282c3.808594-1.550782 8.367188-2.648438 14.191406-2.648438 13.082032 0 20.015625 5.359375 25.59375 9.671875zm9.183594-401.671875c0-17.648438-14.351562-32-32-32s-32 14.351562-32 32h16c0-8.824219 7.175781-16 16-16s16 7.175781 16 16-7.175781 16-16 16h-128v16h128c17.648438 0 32-14.351562 32-32zm-200 76c0-15.441406-12.558594-28-28-28s-28 12.558594-28 28v4h16v-4c0-6.617188 5.382812-12 12-12s12 5.382812 12 12-5.382812 12-12 12h-92v16h92c15.441406 0 28-12.558594 28-28zm220 20c-15.441406 0-28 12.558594-28 28v4h16v-4c0-6.617188 5.382812-12 12-12s12 5.382812 12 12-5.382812 12-12 12h-68v16h68c15.441406 0 28-12.558594 28-28s-12.558594-28-28-28zm-196-80h-16v16h16zm-32 0h-16v16h16zm0 0" fill="url(#a)"/></svg>