<?xml version="1.0" encoding="iso-8859-1"?>
<!-- Generator: Adobe Illustrator 20.0.0, SVG Export Plug-In . SVG Version: 6.00 Build 0)  -->
<svg version="1.1" id="Layer_1_1_" xmlns="http://www.w3.org/2000/svg" xmlns:xlink="http://www.w3.org/1999/xlink" x="0px" y="0px"
	 viewBox="0 0 64 64" style="enable-background:new 0 0 64 64;" xml:space="preserve">
<g id="Guide">
	<g>
	</g>
	<g>
	</g>
	<g>
	</g>
	<g>
	</g>
	<g>
	</g>
	<g>
	</g>
	<g>
	</g>
	<g>
	</g>
	<g>
	</g>
	<g>
	</g>
	<g>
	</g>
	<g>
	</g>
	<g>
	</g>
	<g>
	</g>
	<g>
	</g>
	<g>
	</g>
	<g>
	</g>
	<g>
	</g>
	<g>
	</g>
	<g>
	</g>
	<g>
	</g>
	<g>
	</g>
	<g>
	</g>
	<g>
	</g>
	<g>
	</g>
	<g>
	</g>
	<g>
	</g>
	<g>
	</g>
	<g>
	</g>
	<g>
	</g>
	<g>
	</g>
	<g>
	</g>
	<g>
	</g>
	<g>
	</g>
	<g>
	</g>
	<g>
	</g>
</g>
<path d="M53,42c-0.654,0-1.292,0.068-1.915,0.178l-0.529-1.94C51.349,40.087,52.164,40,53,40v-2c-1.018,0-2.012,0.104-2.973,0.298
	L48,30.866V25c0.552,0,1-0.448,1-1v-1h3v-2h-3v-1c0-0.552-0.448-1-1-1h-7.819l0.806-4.835C40.996,14.11,41,14.055,41,14v-2.35
	c2.327-0.826,4-3.043,4-5.65c0-3.309-2.691-6-6-6s-6,2.691-6,6c0,1.44,0.51,2.762,1.359,3.797c-3.396,2.15-5.699,5.687-6.237,9.72
	l-1.113,8.351c-0.019,0.145-0.007,0.292,0.037,0.431l2.946,9.428l-4.824,7.719l-4,6c-0.265,0.396-0.212,0.925,0.125,1.262l3,3
	C24.481,55.896,24.736,56,25,56c0.026,0,0.052-0.001,0.078-0.003c0.292-0.023,0.559-0.172,0.73-0.409l6.337-8.713L32.61,56H25
	h-3.045c-0.371-4.103-3.009-7.554-6.644-9.11C15.735,46.372,16,45.72,16,45c0-0.462-0.114-0.896-0.302-1.287
	C15.884,43.531,16,43.28,16,43V33v-1v-1c0-0.552-0.448-1-1-1h-2v-2c0-1.103-0.897-2-2-2H5c-1.103,0-2,0.897-2,2v2H1
	c-0.552,0-1,0.448-1,1v1v1v10c0,0.28,0.116,0.531,0.302,0.713C0.114,44.104,0,44.538,0,45c0,1.069,0.566,2.003,1.41,2.534
	C0.541,48.434,0,49.653,0,51h2c0-1.654,1.346-3,3-3h1h5c4.962,0,9,4.038,9,9c0,0.552,0.448,1,1,1h12.662H39
	c0.14,0,0.273-0.03,0.394-0.082c0.027-0.012,0.048-0.036,0.074-0.05c0.091-0.049,0.178-0.103,0.249-0.176
	c0.004-0.004,0.011-0.006,0.015-0.01c0.03-0.032,0.042-0.075,0.067-0.111c0.049-0.068,0.098-0.134,0.129-0.213
	c0.022-0.057,0.025-0.117,0.036-0.177C39.975,57.12,40,57.064,40,57v-4c0-5.633,3.608-10.427,8.629-12.228l0.528,1.934
	C44.984,44.271,42,48.288,42,53c0,6.065,4.935,11,11,11s11-4.935,11-11S59.065,42,53,42z M2,42v-5.556C2.591,36.788,3.268,37,4,37h8
	c0.732,0,1.409-0.212,2-0.556V42h-1H3H2z M5,28h6v2H5V28z M14,32v1c0,1.103-0.897,2-2,2H4c-1.103,0-2-0.897-2-2v-1H14z M6,46H3
	c-0.551,0-1-0.449-1-1s0.449-1,1-1h10c0.551,0,1,0.449,1,1s-0.449,1-1,1h-2H6z M39,2c2.206,0,4,1.794,4,4s-1.794,4-4,4s-4-1.794-4-4
	S36.794,2,39,2z M24.879,53.465l-1.593-1.593l3.562-5.343l3.93-6.288l1.118,3.576L24.879,53.465z M34.612,56l-0.614-12.051
	c-0.004-0.084-0.019-0.167-0.044-0.248l-4.934-15.789l1.084-8.131c0.487-3.652,2.672-6.821,5.866-8.611
	C36.861,11.694,37.894,12,39,12v1.917l-0.986,5.918c-0.048,0.29,0.033,0.586,0.223,0.811C38.427,20.871,38.706,21,39,21h8v2H36.234
	c-0.288,0-0.553-0.118-0.745-0.333c-0.192-0.215-0.281-0.491-0.248-0.792l0.753-7.779l-1.99-0.192l-0.752,7.765
	c-0.094,0.847,0.178,1.697,0.747,2.332C34.568,24.636,35.382,25,36.234,25H37v4.945l-0.473,4.259l-1.565-5.479l-1.923,0.55
	l3.971,13.9L37.926,56H34.612z M39.285,46.951l-0.287-4.022c-0.005-0.069-0.017-0.137-0.036-0.204l-1.035-3.622l0.067,0.007l1-9
	C38.998,30.074,39,30.037,39,30v-5h7v6c0,0.089,0.012,0.177,0.035,0.263l2.066,7.575C44.16,40.206,40.962,43.164,39.285,46.951z
	 M53,62c-4.962,0-9-4.038-9-9c0-3.791,2.359-7.035,5.684-8.359l2.351,8.622l1.93-0.526l-2.351-8.619C52.067,44.048,52.528,44,53,44
	c4.962,0,9,4.038,9,9S57.962,62,53,62z"/>
<path d="M11,64c3.86,0,7-3.14,7-7s-3.14-7-7-7s-7,3.14-7,7S7.14,64,11,64z M11,52c2.757,0,5,2.243,5,5s-2.243,5-5,5s-5-2.243-5-5
	S8.243,52,11,52z"/>
<rect x="7" y="38" width="2" height="2"/>
<rect x="20" y="6" width="7" height="2"/>
<rect x="12" y="6" width="2" height="2"/>
<rect x="16" y="6" width="2" height="2"/>
<rect x="8" y="6" width="2" height="2"/>
<rect x="15" y="14" width="7" height="2"/>
<rect x="7" y="14" width="2" height="2"/>
<rect x="11" y="14" width="2" height="2"/>
<rect x="3" y="14" width="2" height="2"/>
</svg>
